<svg width="24" height="24" viewBox="0 0 24 24" fill="none" xmlns="http://www.w3.org/2000/svg">
<path d="M22.6994 7.62526C22.9267 8.98517 23.0799 10.3247 23.1105 11.5554H18.6656C18.6388 10.0649 18.4821 8.42996 18.2571 6.79749C19.6646 7.01838 21.0497 7.28075 22.3143 7.54422C22.444 7.57124 22.5724 7.59828 22.6994 7.62526Z" fill="white"/>
<path d="M22.5307 6.68093C22.2563 5.23422 21.9112 3.78763 21.5533 2.4467C20.2124 2.08882 18.7658 1.74373 17.3191 1.46927C17.3215 1.48095 17.3239 1.49264 17.3264 1.50434C17.6077 2.8547 17.8903 4.35253 18.1232 5.87684C19.6475 6.10972 21.1453 6.39229 22.4957 6.67362C22.5074 6.67606 22.5191 6.6785 22.5307 6.68093Z" fill="white"/>
<path d="M17.2025 5.74294C16.9816 4.33537 16.7193 2.95032 16.4558 1.68572C16.4288 1.55598 16.4017 1.42757 16.3747 1.30057C15.0148 1.07332 13.6753 0.920119 12.4446 0.889533V5.3344C13.9351 5.36116 15.57 5.51795 17.2025 5.74294Z" fill="white"/>
<path d="M11.5554 5.3344V0.889533C10.3247 0.92012 8.98516 1.07332 7.62526 1.30058C7.59827 1.42757 7.57124 1.55598 7.54421 1.68572C7.28075 2.95032 7.01837 4.33537 6.79748 5.74294C8.42996 5.51795 10.0649 5.36116 11.5554 5.3344Z" fill="white"/>
<path d="M6.66014 6.66015C8.3454 6.42036 10.0325 6.25206 11.5554 6.22383V11.5554H6.22383C6.25206 10.0325 6.42035 8.34541 6.66014 6.66015Z" fill="white"/>
<path d="M5.87683 5.87684C6.10972 4.35253 6.39229 2.8547 6.67362 1.50434C6.67606 1.49264 6.67849 1.48095 6.68093 1.46928C5.23422 1.74373 3.78762 2.08882 2.4467 2.4467C2.08882 3.78762 1.74372 5.23422 1.46927 6.68093C1.48095 6.6785 1.49264 6.67606 1.50434 6.67362C2.8547 6.39229 4.35253 6.10972 5.87683 5.87684Z" fill="white"/>
<path d="M1.30057 7.62526C1.42756 7.59828 1.55598 7.57124 1.68572 7.54421C2.95032 7.28075 4.33536 7.01838 5.74294 6.79749C5.51795 8.42996 5.36115 10.0649 5.3344 11.5554H0.889533C0.92012 10.3247 1.07332 8.98517 1.30057 7.62526Z" fill="white"/>
<path d="M12.4446 11.5554V6.22383C13.9675 6.25206 15.6546 6.42036 17.3399 6.66015C17.5796 8.34541 17.7479 10.0325 17.7762 11.5554H12.4446Z" fill="white"/>
<path d="M0.889533 12.4446C0.920119 13.6753 1.07332 15.0148 1.30057 16.3747C1.42756 16.4017 1.55598 16.4288 1.68572 16.4558C2.95032 16.7193 4.33536 16.9816 5.74294 17.2025C5.51795 15.57 5.36115 13.9351 5.3344 12.4446H0.889533Z" fill="white"/>
<path d="M6.22383 12.4446C6.25206 13.9675 6.42035 15.6546 6.66014 17.3399C8.3454 17.5796 10.0325 17.7479 11.5554 17.7762V12.4446H6.22383Z" fill="white"/>
<path d="M12.4446 12.4446V17.7762C13.9675 17.7479 15.6546 17.5796 17.3399 17.3399C17.5796 15.6546 17.7479 13.9675 17.7762 12.4446H12.4446Z" fill="white"/>
<path d="M18.6656 12.4446C18.6388 13.9351 18.4821 15.57 18.2571 17.2025C19.6646 16.9816 21.0497 16.7193 22.3143 16.4558C22.444 16.4288 22.5724 16.4017 22.6994 16.3747C22.9267 15.0148 23.0799 13.6753 23.1105 12.4446H18.6656Z" fill="white"/>
<path d="M22.5307 17.3191C22.5191 17.3215 22.5074 17.3239 22.4957 17.3264C21.1453 17.6077 19.6475 17.8903 18.1232 18.1232C17.8903 19.6475 17.6077 21.1453 17.3264 22.4957C17.3239 22.5074 17.3215 22.5191 17.3191 22.5307C18.7658 22.2563 20.2124 21.9112 21.5533 21.5533C21.9112 20.2124 22.2563 18.7658 22.5307 17.3191Z" fill="white"/>
<path d="M16.3747 22.6994C16.4017 22.5724 16.4288 22.444 16.4558 22.3143C16.7193 21.0497 16.9816 19.6646 17.2025 18.2571C15.57 18.4821 13.9351 18.6388 12.4446 18.6656V23.1105C13.6753 23.0799 15.0148 22.9267 16.3747 22.6994Z" fill="white"/>
<path d="M11.5554 23.1105V18.6656C10.0649 18.6388 8.42996 18.4821 6.79748 18.2571C7.01837 19.6646 7.28075 21.0497 7.54421 22.3143C7.57124 22.444 7.59827 22.5724 7.62526 22.6994C8.98516 22.9267 10.3247 23.0799 11.5554 23.1105Z" fill="white"/>
<path d="M6.68093 22.5307C6.67849 22.519 6.67606 22.5074 6.67362 22.4957C6.39229 21.1453 6.10972 19.6475 5.87683 18.1232C4.35253 17.8903 2.8547 17.6077 1.50434 17.3264C1.49264 17.3239 1.48095 17.3215 1.46927 17.3191C1.74372 18.7658 2.08882 20.2124 2.44669 21.5533C3.78762 21.9112 5.23422 22.2563 6.68093 22.5307Z" fill="white"/>
</svg>
