<svg width="24" height="24" viewBox="0 0 24 24" fill="none" xmlns="http://www.w3.org/2000/svg">
<path d="M14.4603 4.30296L12 7.58333L9.53972 4.30296L9.42964 4.15619L9.25661 4.21718C6.90699 5.0454 5.0454 6.90699 4.21718 9.25661L4.15619 9.42964L4.30296 9.53972L7.58333 12L4.30296 14.4603L4.15619 14.5704L4.21718 14.7434C5.0454 17.093 6.90699 18.9546 9.25661 19.7828L9.42964 19.8438L9.53972 19.697L12 16.4167L14.4603 19.697L14.5704 19.8438L14.7434 19.7828C17.093 18.9546 18.9546 17.093 19.7828 14.7434L19.8438 14.5704L19.697 14.4603L16.4167 12L19.697 9.53972L19.8438 9.42964L19.7828 9.25661C18.9546 6.90699 17.093 5.0454 14.7434 4.21718L14.5704 4.15619L14.4603 4.30296ZM22.75 12C22.75 17.9371 17.9371 22.75 12 22.75C6.06294 22.75 1.25 17.9371 1.25 12C1.25 6.06294 6.06294 1.25 12 1.25C17.9371 1.25 22.75 6.06294 22.75 12Z" fill="white" stroke="black" stroke-width="0.5"/>
</svg>
