<svg width="24" height="24" viewBox="0 0 24 24" fill="none" xmlns="http://www.w3.org/2000/svg">
<path fill-rule="evenodd" clip-rule="evenodd" d="M11.2344 2V3.89258C7.35385 4.2565 4.2565 7.35385 3.89258 11.2344H2V12.7656H3.89258C4.2565 16.6462 7.35385 19.7435 11.2344 20.1074V22H12.7656V20.1074C16.6462 19.7435 19.7435 16.6462 20.1074 12.7656H22V11.2344H20.1074C19.7435 7.35385 16.6462 4.2565 12.7656 3.89258V2H11.2344ZM11.2344 5.42969V5.85547H12.7656V5.42969C15.8141 5.77923 18.2208 8.1859 18.5703 11.2344H18.1445V12.7656H18.5703C18.4439 13.8685 18.0413 14.8821 17.4434 15.75L8.08594 6.66992C8.98814 6.00714 10.0616 5.56416 11.2344 5.42969ZM6.55469 8.25L15.9121 17.332C15.0104 17.9939 13.9374 18.436 12.7656 18.5703V18.1445H11.2344V18.5703C8.1859 18.2208 5.77923 15.8141 5.42969 12.7656H5.85547V11.2344H5.42969C5.55611 10.1318 5.95703 9.1177 6.55469 8.25Z" fill="white"/>
</svg>
