<svg width="24" height="24" viewBox="0 0 24 24" fill="none" xmlns="http://www.w3.org/2000/svg">
<path fill-rule="evenodd" clip-rule="evenodd" d="M11.2344 2V3.89258C7.35385 4.2565 4.2565 7.35385 3.89258 11.2344H2V12.7656H3.89258C4.2565 16.6462 7.35385 19.7435 11.2344 20.1074V22H12.7656V20.1074C16.6462 19.7435 19.7435 16.6462 20.1074 12.7656H22V11.2344H20.1074C19.7435 7.35385 16.6462 4.2565 12.7656 3.89258V2H11.2344ZM11.2344 5.42969V5.85547H12.7656V5.42969C15.8141 5.77923 18.2208 8.1859 18.5703 11.2344H18.1445V12.7656H18.5703C18.2208 15.8141 15.8141 18.2208 12.7656 18.5703V18.1445H11.2344V18.5703C8.1859 18.2208 5.77923 15.8141 5.42969 12.7656H5.85547V11.2344H5.42969C5.77923 8.1859 8.1859 5.77923 11.2344 5.42969Z" fill="white"/>
<path d="M12 8.83984C10.2635 8.83984 8.83984 10.2635 8.83984 12C8.83984 13.7365 10.2635 15.1602 12 15.1602C13.7365 15.1602 15.1602 13.7365 15.1602 12C15.1602 10.2635 13.7365 8.83984 12 8.83984ZM12 10.3398C12.9258 10.3398 13.6602 11.0742 13.6602 12C13.6602 12.9258 12.9258 13.6602 12 13.6602C11.0742 13.6602 10.3398 12.9258 10.3398 12C10.3398 11.0742 11.0742 10.3398 12 10.3398Z" fill="white"/>
</svg>
