<svg width="24" height="24" viewBox="0 0 24 24" fill="none" xmlns="http://www.w3.org/2000/svg">
<path d="M12 0C10.6667 3.99965 9.33333 7.99931 8 11.999C10.6667 11.999 13.3333 11.999 16 11.999C14.6667 7.99931 13.3333 3.99965 12 0ZM12 3.17997C12.8548 6.11895 13.7096 9.05792 14.5644 11.9969C12.7525 11.9997 10.9407 12.0024 9.12882 12.0052C10.0859 9.06344 11.0429 6.1217 12 3.17997ZM8 12.001C9.33333 16.0007 10.6667 20.0003 12 24C13.3333 20.0003 14.6667 16.0007 16 12.001C13.3333 12.001 10.6667 12.001 8 12.001Z" fill="#F6F5F0"/>
</svg>
