<svg width="24" height="24" viewBox="0 0 24 24" fill="none" xmlns="http://www.w3.org/2000/svg">
<path fill-rule="evenodd" clip-rule="evenodd" d="M7 10C7.6166 10 8.18975 9.81398 8.6664 9.495L10 11L10.5 12L10 13L8.85443 14.6416C8.34405 14.2398 7.70003 14 7 14C5.34315 14 4 15.3431 4 17C4 18.6569 5.34315 20 7 20C8.65685 20 10 18.6569 10 17C10 16.2954 9.75709 15.6475 9.35045 15.1356L11 14L12 13.5L13 14L14.505 15.3336C14.186 15.8102 14 16.3834 14 17C14 18.6569 15.3431 20 17 20C18.6569 20 20 18.6569 20 17C20 15.3431 18.6569 14 17 14C16.2126 14 15.4961 14.3033 14.9609 14.7995L14 13L13.5 12L14 11L15.1356 9.35045C15.6475 9.75709 16.2954 10 17 10C18.6569 10 20 8.65685 20 7C20 5.34315 18.6569 4 17 4C15.3431 4 14 5.34315 14 7C14 7.70002 14.2398 8.34405 14.6416 8.85443L13.5 9.5L12 8L10.5 9.5L9.20047 9.03912C9.69666 8.50392 10 7.78738 10 7C10 5.34315 8.65685 4 7 4C5.34315 4 4 5.34315 4 7C4 8.65685 5.34315 10 7 10ZM7 9.5C7.47804 9.5 7.92474 9.36583 8.3045 9.13309L7.15886 7.98745C7.10712 7.99571 7.05406 8 7 8C6.44772 8 6 7.55228 6 7C6 6.44772 6.44772 6 7 6C7.55228 6 8 6.44772 8 7C8 7.23503 7.91892 7.45113 7.78319 7.62184L8.84661 8.68526C9.25247 8.2408 9.5 7.64931 9.5 7C9.5 5.61929 8.38071 4.5 7 4.5C5.61929 4.5 4.5 5.61929 4.5 7C4.5 8.38071 5.61929 9.5 7 9.5ZM7 14.5C7.56185 14.5 8.0804 14.6853 8.49787 14.9982L7.40892 16.0872C7.28409 16.0312 7.14568 16 7 16C6.44772 16 6 16.4477 6 17C6 17.5523 6.44772 18 7 18C7.55229 18 8 17.5523 8 17C8 16.8495 7.96676 16.7068 7.90723 16.5788L8.9941 15.4919C9.31162 15.9111 9.5 16.4336 9.5 17C9.5 18.3807 8.38071 19.5 7 19.5C5.61929 19.5 4.5 18.3807 4.5 17C4.5 15.6193 5.61929 14.5 7 14.5ZM14.5 17C14.5 16.522 14.6342 16.0753 14.8669 15.6955L16.0125 16.8411C16.0043 16.8929 16 16.9459 16 17C16 17.5523 16.4477 18 17 18C17.5523 18 18 17.5523 18 17C18 16.4477 17.5523 16 17 16C16.765 16 16.5489 16.0811 16.3782 16.2168L15.3147 15.1534C15.7592 14.7475 16.3507 14.5 17 14.5C18.3807 14.5 19.5 15.6193 19.5 17C19.5 18.3807 18.3807 19.5 17 19.5C15.6193 19.5 14.5 18.3807 14.5 17ZM17 9.5C16.4336 9.5 15.9111 9.31162 15.4919 8.9941L16.5788 7.90723C16.7068 7.96676 16.8495 8 17 8C17.5523 8 18 7.55228 18 7C18 6.44772 17.5523 6 17 6C16.4477 6 16 6.44772 16 7C16 7.14568 16.0312 7.28409 16.0872 7.40892L14.9982 8.49787C14.6853 8.0804 14.5 7.56185 14.5 7C14.5 5.61929 15.6193 4.5 17 4.5C18.3807 4.5 19.5 5.61929 19.5 7C19.5 8.38071 18.3807 9.5 17 9.5Z" fill="white"/>
</svg>
