<svg width="24" height="24" viewBox="0 0 24 24" fill="none" xmlns="http://www.w3.org/2000/svg">
<path d="M20.0252 18.3181L19.3181 19.0252C15.7825 16.9039 12.247 14.7826 11.8935 10.8934C15.7825 11.247 17.9039 14.7825 20.0252 18.3181Z" fill="white"/>
<path d="M17.1968 18.3181L18.9645 19.3787C18.5001 19.8432 19.0963 20.6612 19.6477 21.524C18.2782 20.7721 16.1569 20.065 17.1968 18.3181Z" fill="white"/>
<path d="M19.3181 16.1967L20.3787 17.9645C20.8432 17.5 21.6612 18.0962 22.524 18.6477C21.7721 17.2782 21.065 15.1569 19.3181 16.1967Z" fill="white"/>
<path d="M11.9902 9.67158C12.0253 9.36599 11.9657 9.05698 11.8194 8.78641C11.6731 8.51585 11.4471 8.29682 11.1721 8.159C10.8971 8.02118 10.5864 7.97123 10.282 8.01594C9.97768 8.06064 9.69445 8.19783 9.47069 8.40891C9.24694 8.61999 9.0935 8.89475 9.03115 9.19597C8.9688 9.49719 9.00056 9.81029 9.12213 10.0929C9.24371 10.3754 9.44921 10.6138 9.71079 10.7756C9.97238 10.9374 10.2774 11.015 10.5845 10.9976L10.5 9.50001L11.9902 9.67158Z" fill="white"/>
<path d="M14.8529 10.6413C15.1029 9.68768 15.0329 8.67839 14.6535 7.76848C14.2742 6.85858 13.6066 6.0984 12.7533 5.60478C11.9 5.11117 10.9081 4.91141 9.93027 5.03623C8.9524 5.16104 8.04256 5.60351 7.34058 6.29564C6.63861 6.98777 6.18333 7.89126 6.04472 8.86728C5.9061 9.84329 6.09182 10.8378 6.57334 11.698C7.05486 12.5582 7.80552 13.2365 8.70998 13.6287C9.61444 14.0208 10.6226 14.1051 11.5797 13.8686L11.26 12.5751C10.5863 12.7415 9.87665 12.6822 9.24 12.4062C8.60335 12.1302 8.07495 11.6527 7.73601 11.0472C7.39707 10.4417 7.26634 9.74165 7.36391 9.05463C7.46148 8.36761 7.78195 7.73163 8.27608 7.24444C8.7702 6.75725 9.41064 6.44579 10.099 6.35793C10.7873 6.27008 11.4854 6.41068 12.0861 6.75815C12.6867 7.10561 13.1567 7.64069 13.4237 8.28118C13.6907 8.92167 13.74 9.63212 13.564 10.3033L14.8529 10.6413Z" fill="white"/>
<path d="M17.5115 12.1626C18.1246 10.548 18.1617 8.77121 17.6165 7.13241C17.0713 5.49361 15.9772 4.0932 14.519 3.16771C13.0607 2.24222 11.3278 1.84836 9.61279 2.05267C7.8978 2.25698 6.30588 3.04693 5.1059 4.2891C3.90592 5.53127 3.17143 7.14952 3.02647 8.87055C2.88152 10.5916 3.33499 12.3099 4.31029 13.7353C5.28559 15.1606 6.72296 16.2057 8.37961 16.694C10.0363 17.1823 11.8107 17.0839 13.4032 16.4153L12.8767 15.1613C11.573 15.7086 10.1204 15.7892 8.76412 15.3895C7.40789 14.9897 6.23118 14.1341 5.43273 12.9672C4.63429 11.8003 4.26305 10.3936 4.38172 8.98469C4.50039 7.57576 5.10169 6.25096 6.08407 5.23405C7.06644 4.21713 8.36969 3.57043 9.77368 3.40317C11.1777 3.23591 12.5964 3.55834 13.7902 4.31601C14.9839 5.07367 15.8797 6.22013 16.326 7.56175C16.7723 8.90337 16.742 10.3579 16.24 11.6798L17.5115 12.1626Z" fill="white"/>
</svg>
