<svg width="24" height="24" viewBox="0 0 24 24" fill="none" xmlns="http://www.w3.org/2000/svg">
<path fill-rule="evenodd" clip-rule="evenodd" d="M11.5216 16.9839C7.87875 16.7381 5 13.7052 5 10C5 6.13401 8.13401 3 12 3C15.866 3 19 6.13401 19 10C19 13.7052 16.1213 16.7381 12.4784 16.9839L12.4231 19.5L14 20V20.8446L12 21L10 20.8446V20L11.5769 19.5L11.5216 16.9839ZM11.5062 16.2809L11.5 16C11.5 15.3038 11.2846 14.6077 11.0538 13.8616C10.7872 13 10.5 12.0718 10.5 11V9.5C10.5 9.25658 10.4868 9 10.4733 8.73666C10.4036 7.37722 10.3246 5.83772 12 5C13.6754 5.83772 13.5964 7.37722 13.5267 8.73666C13.5132 9 13.5 9.25658 13.5 9.5V11C13.5 12.0718 13.2128 13 12.9462 13.8616C12.7154 14.6077 12.5 15.3038 12.5 16L12.4938 16.2809C15.7424 16.029 18.3 13.3132 18.3 10C18.3 6.52061 15.4794 3.7 12 3.7C8.52061 3.7 5.7 6.52061 5.7 10C5.7 13.3132 8.25759 16.029 11.5062 16.2809Z" fill="white"/>
</svg>
