<svg width="24" height="24" viewBox="0 0 24 24" fill="none" xmlns="http://www.w3.org/2000/svg">
<path fill-rule="evenodd" clip-rule="evenodd" d="M11.0484 12.508L11 11.9771H7C7.40356 10.5716 7.82906 9.90704 9 8.97708L7 2.97707C10.7622 1.68589 12.9165 1.66279 17 2.97707L15.2104 8.34596L11.0484 12.508ZM11.1866 14.0251L4.82766 20.384L4 19.5563L11.0484 12.508L11.1866 14.0251ZM12.9765 12.2352L12 22.9541L11.1866 14.0251L12.9765 12.2352ZM13.2346 11.9771L12.9765 12.2352L13 11.9771H13.2346ZM13.2346 11.9771L15.7007 9.51097C16.4644 10.1715 16.7895 10.8204 17 11.9771H13.2346ZM15.7007 9.51097C15.4995 9.33698 15.2679 9.16219 15 8.97708L15.2104 8.34596L19.5563 3.99999L20.384 4.82765L15.7007 9.51097Z" fill="white"/>
</svg>
