<svg width="24" height="24" viewBox="0 0 24 24" fill="none" xmlns="http://www.w3.org/2000/svg">
<path d="M10.9222 8.5383C11.044 9.10575 11.1538 9.6178 11.1538 9.99999V11.5L1 12V13L11.1538 13.5L11.5769 18.5L8.61538 19V19.8445L12 20L15.3846 19.8445V19L12.4231 18.5L12.8462 13.5L23 13V12L12.8462 11.5V9.99999C12.8462 9.6178 12.956 9.10575 13.0778 8.5383C13.4339 6.87871 13.8917 4.7452 12 3.99999C10.1083 4.7452 10.5661 6.87871 10.9222 8.5383Z" fill="white"/>
<path fill-rule="evenodd" clip-rule="evenodd" d="M5.70001 9.98518C4.18401 9.83467 3 8.5556 3 6.99999C3 5.34314 4.34315 3.99999 6 3.99999C7.65685 3.99999 9 5.34314 9 6.99999C9 8.55559 7.816 9.83466 6.30001 9.98518V14.0148C7.816 14.1653 9 15.4444 9 17C9 18.6568 7.65685 20 6 20C4.34315 20 3 18.6568 3 17C3 15.4444 4.18401 14.1653 5.70001 14.0148V9.98518ZM5.70001 9.48218C4.46074 9.33398 3.5 8.27918 3.5 6.99999C3.5 5.61928 4.61929 4.49999 6 4.49999C7.38071 4.49999 8.5 5.61928 8.5 6.99999C8.5 8.27917 7.53927 9.33397 6.30001 9.48218V7.95421C6.70572 7.82678 7 7.44775 7 6.99999C7 6.44771 6.55228 5.99999 6 5.99999C5.44772 5.99999 5 6.44771 5 6.99999C5 7.44776 5.2943 7.8268 5.70001 7.95422V9.48218ZM5.70001 14.5178C4.46074 14.666 3.5 15.7208 3.5 17C3.5 18.3807 4.61929 19.5 6 19.5C7.38071 19.5 8.5 18.3807 8.5 17C8.5 15.7208 7.53927 14.666 6.30001 14.5178V16.0458C6.70572 16.1732 7 16.5522 7 17C7 17.5523 6.55228 18 6 18C5.44772 18 5 17.5523 5 17C5 16.5522 5.2943 16.1732 5.70001 16.0458V14.5178Z" fill="white"/>
<path d="M19 6.99999C19 7.55228 18.5523 7.99999 18 7.99999C17.4477 7.99999 17 7.55228 17 6.99999C17 6.44771 17.4477 5.99999 18 5.99999C18.5523 5.99999 19 6.44771 19 6.99999Z" fill="white"/>
<path d="M18 18C18.5523 18 19 17.5523 19 17C19 16.4477 18.5523 16 18 16C17.4477 16 17 16.4477 17 17C17 17.5523 17.4477 18 18 18Z" fill="white"/>
<path fill-rule="evenodd" clip-rule="evenodd" d="M21 17C21 18.6568 19.6569 20 18 20C16.3431 20 15 18.6568 15 17C15 15.3431 16.3431 14 18 14C19.6569 14 21 15.3431 21 17ZM20.5 17C20.5 18.3807 19.3807 19.5 18 19.5C16.6193 19.5 15.5 18.3807 15.5 17C15.5 15.6193 16.6193 14.5 18 14.5C19.3807 14.5 20.5 15.6193 20.5 17Z" fill="white"/>
<path d="M17.7 6.99999H18.3V17H17.7V6.99999Z" fill="white"/>
<path fill-rule="evenodd" clip-rule="evenodd" d="M21 6.98218C21 8.63904 19.6569 9.98218 18 9.98218C16.3431 9.98218 15 8.63904 15 6.98218C15 5.32533 16.3431 3.98218 18 3.98218C19.6569 3.98218 21 5.32533 21 6.98218ZM20.5 6.98218C20.5 8.3629 19.3807 9.48218 18 9.48218C16.6193 9.48218 15.5 8.3629 15.5 6.98218C15.5 5.60147 16.6193 4.48218 18 4.48218C19.3807 4.48218 20.5 5.60147 20.5 6.98218Z" fill="white"/>
</svg>
