<svg width="24" height="24" viewBox="0 0 24 24" fill="none" xmlns="http://www.w3.org/2000/svg">
<path d="M22 5.5C22 6.88071 20.8807 8 19.5 8C18.4351 8 17.5256 7.33413 17.1654 6.39601L9.99839 7.59051C9.95182 8.89925 8.89927 9.95181 7.59053 9.99839L6.39603 17.1654C7.33414 17.5256 8 18.4351 8 19.5C8 20.8807 6.88071 22 5.5 22C4.11929 22 3 20.8807 3 19.5C3 18.1496 4.07073 17.0492 5.40954 17.0016L6.60403 9.83465C5.66589 9.4744 5 8.56496 5 7.5C5 6.11929 6.11929 5 7.5 5C8.56495 5 9.47438 5.66588 9.83464 6.604L17.0016 5.40951C17.0492 4.07071 18.1496 3 19.5 3C20.8807 3 22 4.11929 22 5.5Z" fill="white"/>
</svg>
