<svg width="24" height="24" viewBox="0 0 24 24" fill="none" xmlns="http://www.w3.org/2000/svg">
<path d="M24 3.15789C24 4.90195 22.6451 6.31579 20.9737 6.31579C19.6845 6.31579 18.5837 5.47468 18.1475 4.2897L9.47174 5.79853C9.41536 7.45168 8.14122 8.78123 6.55696 8.84007L5.11099 17.8931C6.24659 18.3482 7.05263 19.4969 7.05263 20.8421C7.05263 22.5862 5.6977 24 4.02632 24C2.35493 24 1 22.5862 1 20.8421C1 19.1363 2.29614 17.7464 3.91681 17.6862L5.36277 8.63325C4.22713 8.17819 3.42105 7.02943 3.42105 5.68421C3.42105 3.94015 4.77598 2.52632 6.44737 2.52632C7.73652 2.52632 8.83741 3.36743 9.27352 4.55243L17.9493 3.04359C18.007 1.35248 19.339 0 20.9737 0C22.6451 0 24 1.41384 24 3.15789Z" fill="white"/>
</svg>
